<?xml version="1.0" encoding="UTF-8" standalone="no"?>
<!-- Created with Inkscape (http://www.inkscape.org/) -->

<svg
   xmlns:dc="http://purl.org/dc/elements/1.1/"
   xmlns:cc="http://creativecommons.org/ns#"
   xmlns:rdf="http://www.w3.org/1999/02/22-rdf-syntax-ns#"
   xmlns:svg="http://www.w3.org/2000/svg"
   xmlns="http://www.w3.org/2000/svg"
   xmlns:sodipodi="http://sodipodi.sourceforge.net/DTD/sodipodi-0.dtd"
   xmlns:inkscape="http://www.inkscape.org/namespaces/inkscape"
   width="525.2793"
   height="288.90363"
   id="svg2"
   version="1.1"
   inkscape:version="0.48.4 r9939"
   sodipodi:docname="kgis_LOGO.svg">
  <defs
     id="defs4" />
  <sodipodi:namedview
     id="base"
     pagecolor="#ffffff"
     bordercolor="#666666"
     borderopacity="1.0"
     inkscape:pageopacity="0.0"
     inkscape:pageshadow="2"
     inkscape:zoom="0.98994949"
     inkscape:cx="315.79989"
     inkscape:cy="98.720548"
     inkscape:document-units="px"
     inkscape:current-layer="flowRoot2993"
     showgrid="false"
     showguides="true"
     inkscape:guide-bbox="true"
     inkscape:window-width="1366"
     inkscape:window-height="721"
     inkscape:window-x="-2"
     inkscape:window-y="-3"
     inkscape:window-maximized="1"
     fit-margin-top="0"
     fit-margin-left="0"
     fit-margin-right="0"
     fit-margin-bottom="0">
    <sodipodi:guide
       orientation="1,0"
       position="59.599045,305.06602"
       id="guide3026" />
    <sodipodi:guide
       orientation="0,1"
       position="333.35039,224.25381"
       id="guide3028" />
    <sodipodi:guide
       orientation="0,1"
       position="-225.26397,60.609097"
       id="guide3030" />
    <sodipodi:guide
       orientation="1,0"
       position="455.57885,316.17769"
       id="guide3802" />
  </sodipodi:namedview>
  <metadata
     id="metadata7">
    <rdf:RDF>
      <cc:Work
         rdf:about="">
        <dc:format>image/svg+xml</dc:format>
        <dc:type
           rdf:resource="http://purl.org/dc/dcmitype/StillImage" />
        <dc:title></dc:title>
      </cc:Work>
    </rdf:RDF>
  </metadata>
  <g
     inkscape:label="Laag 1"
     inkscape:groupmode="layer"
     id="layer1"
     transform="translate(-122.22841,-157.36699)">
    <g
       transform="matrix(4.2432472,0,0,5.5776809,-488.62197,-1257.2142)"
       style="font-size:40px;font-style:normal;font-weight:normal;line-height:125%;letter-spacing:0px;word-spacing:0px;fill:#000080;fill-opacity:1;stroke:none;font-family:Sans"
       id="flowRoot2993">
      <rect
         style="fill:#a4a4f1;fill-opacity:1"
         id="rect3800"
         width="123.79182"
         height="51.796368"
         x="143.95824"
         y="253.61458"
         ry="12.661336"
         rx="16.426208"
         inkscape:export-xdpi="34.267487"
         inkscape:export-ydpi="34.267487" />
      <path
         sodipodi:type="inkscape:offset"
         inkscape:radius="0.96931404"
         inkscape:original="M 144.59375 264.71875 L 144.59375 293.875 L 150.59375 293.875 L 150.59375 284.125 L 153.59375 281 L 163.15625 293.875 L 170.3125 293.875 L 157.4375 277.28125 L 169.09375 264.71875 L 162 264.71875 L 150.59375 277.5 L 150.59375 264.71875 L 144.59375 264.71875 z "
         style="font-variant:normal;font-weight:600;font-stretch:normal;letter-spacing:0.00197623px;word-spacing:0.00197623px;fill:#0000aa;fill-opacity:1;font-family:FreeSans;-inkscape-font-specification:FreeSans Semi-Bold"
         id="path3016"
         d="m 144.5,263.75 a 0.96941097,0.96941097 0 0 0 -0.875,0.96875 l 0,29.15625 a 0.96941097,0.96941097 0 0 0 0.96875,0.96875 l 6,0 a 0.96941097,0.96941097 0 0 0 0.96875,-0.96875 l 0,-9.375 1.9375,-2.03125 8.875,11.96875 a 0.96941097,0.96941097 0 0 0 0.78125,0.40625 l 7.15625,0 a 0.96941097,0.96941097 0 0 0 0.78125,-1.5625 l -12.375,-15.9375 11.09375,-11.96875 a 0.96941097,0.96941097 0 0 0 -0.71875,-1.625 l -7.09375,0 a 0.96941097,0.96941097 0 0 0 -0.71875,0.3125 l -9.71875,10.875 0,-10.21875 A 0.96941097,0.96941097 0 0 0 150.59375,263.75 l -6,0 a 0.96941097,0.96941097 0 0 0 -0.0937,0 z"
         transform="matrix(1.1720629,0,0,1.0757158,-9.952717,-20.332154)" />
      <path
         sodipodi:type="inkscape:offset"
         inkscape:radius="0.7431801"
         inkscape:original="M 200.03125 265.4375 C 196.21702 265.43753 193.13085 266.72038 190.75 269.3125 C 188.36916 271.90467 187.1875 275.28031 187.1875 279.4375 C 187.1875 283.49692 188.35524 286.85895 190.6875 289.5 C 193.04404 292.14106 195.99817 293.4375 199.59375 293.4375 C 201.39152 293.4375 202.92418 293.09098 204.1875 292.40625 C 205.45079 291.72154 206.60462 290.64796 207.625 289.15625 L 208.28125 292.6875 L 211.5625 292.6875 L 211.5625 278.21875 L 200.90625 278.21875 L 200.90625 282.8125 L 206.96875 282.8125 C 206.87156 283.76623 206.60047 284.61692 206.1875 285.375 C 205.77447 286.10863 205.31571 286.67802 204.78125 287.09375 C 204.24676 287.50947 203.66289 287.85599 203.03125 288.125 C 202.39958 288.36953 201.83658 288.55845 201.375 288.65625 C 200.93769 288.7297 200.55886 288.75 200.21875 288.75 C 198.00795 288.75 196.18335 287.88571 194.75 286.125 C 193.34093 284.36431 192.65624 282.11388 192.65625 279.375 C 192.65624 276.48942 193.3131 274.20095 194.625 272.5625 C 195.96119 270.9241 197.75453 270.12502 200.0625 270.125 C 203.31793 270.12502 205.43446 271.54513 206.40625 274.40625 L 211.5625 274.40625 C 211.22235 271.64296 210.0025 269.45774 207.9375 267.84375 C 205.87245 266.2298 203.23809 265.43753 200.03125 265.4375 z "
         style="font-variant:normal;font-weight:600;font-stretch:normal;letter-spacing:0.00197623px;word-spacing:0.00197623px;font-family:FreeSans;-inkscape-font-specification:FreeSans Semi-Bold"
         id="path3020"
         d="m 200.03125,264.6875 c -3.98086,3e-5 -7.3291,1.3872 -9.84375,4.125 -2.51541,2.73868 -3.75,6.32698 -3.75,10.625 0,4.20194 1.22957,7.77914 3.6875,10.5625 2.48152,2.78113 5.69453,4.1875 9.46875,4.1875 1.89327,0 3.54514,-0.37033 4.9375,-1.125 0.96341,-0.52218 1.83928,-1.32813 2.65625,-2.25 l 0.375,2 a 0.74325441,0.74325441 0 0 0 0.71875,0.625 l 3.28125,0 a 0.74325441,0.74325441 0 0 0 0.75,-0.75 l 0,-14.46875 a 0.74325441,0.74325441 0 0 0 -0.75,-0.75 l -10.65625,0 a 0.74325441,0.74325441 0 0 0 -0.75,0.75 l 0,4.59375 a 0.74325441,0.74325441 0 0 0 0.75,0.75 l 5.0625,0 c -0.12185,0.49534 -0.2083,1.01187 -0.4375,1.4375 -0.005,0.008 0.005,0.0228 0,0.0312 -0.37404,0.65881 -0.78668,1.13266 -1.21875,1.46875 -0.48543,0.37756 -0.99064,0.69395 -1.5625,0.9375 -0.6019,0.233 -1.11037,0.41517 -1.5,0.5 -0.007,0.002 -0.024,-0.002 -0.0312,0 -0.37509,0.0608 -0.69884,0.0625 -1,0.0625 -2.00844,0 -3.56494,-0.74459 -4.875,-2.34375 -1.28942,-1.61119 -1.93751,-3.66623 -1.9375,-6.28125 -1e-5,-2.7728 0.63598,-4.87438 1.8125,-6.34375 1.20246,-1.46351 2.71727,-2.15623 4.84375,-2.15625 1.51965,10e-6 2.71441,0.32386 3.625,0.9375 0.91059,0.61364 1.5549,1.53331 2,2.84375 a 0.74325441,0.74325441 0 0 0 0.71875,0.5 l 5.15625,0 a 0.74325441,0.74325441 0 0 0 0.75,-0.84375 c -0.36067,-2.92997 -1.6967,-5.33553 -3.90625,-7.0625 -2.21369,-1.73012 -5.04576,-2.56247 -8.375,-2.5625 z"
         transform="translate(0.71418362,0.36221238)" />
      <path
         sodipodi:type="inkscape:offset"
         inkscape:radius="0.50940359"
         inkscape:original="M 217.90625 264.71875 L 217.90625 293.875 L 223.90625 293.875 L 223.90625 264.71875 L 217.90625 264.71875 z "
         style="font-variant:normal;font-weight:600;font-stretch:normal;letter-spacing:0.00197623px;word-spacing:0.00197623px;font-family:FreeSans;-inkscape-font-specification:FreeSans Semi-Bold"
         id="path3022"
         d="m 217.75,264.21875 a 0.50945453,0.50945453 0 0 0 -0.34375,0.5 l 0,29.15625 a 0.50945453,0.50945453 0 0 0 0.5,0.5 l 6,0 a 0.50945453,0.50945453 0 0 0 0.5,-0.5 l 0,-29.15625 a 0.50945453,0.50945453 0 0 0 -0.5,-0.5 l -6,0 a 0.50945453,0.50945453 0 0 0 -0.15625,0 z"
         transform="matrix(1,0,0,0.74181105,0,76.004371)" />
      <path
         sodipodi:type="inkscape:offset"
         inkscape:radius="0.74871886"
         inkscape:original="M 240.28125 264.25 C 236.78791 264.25003 234.07166 265.02045 232.125 266.59375 C 230.205 268.14044 229.25 270.33419 229.25 273.1875 C 229.25 275.45419 229.87166 277.20627 231.125 278.40625 C 232.37833 279.60626 234.47749 280.47126 237.4375 281.03125 L 241.53125 281.84375 C 243.53123 282.21709 244.92331 282.70376 245.75 283.34375 C 246.57665 283.98376 246.99998 284.88918 247 286.0625 C 246.99998 287.28917 246.4729 288.27542 245.40625 288.96875 C 244.36623 289.66209 242.93832 290 241.125 290 C 239.09832 290 237.52624 289.57667 236.40625 288.75 C 235.28624 287.92334 234.66916 286.72959 234.5625 285.15625 L 228.71875 285.15625 C 228.90541 288.27626 230.00916 290.65917 232.0625 292.3125 C 234.14249 293.96583 237.07916 294.78125 240.8125 294.78125 C 244.57248 294.78125 247.48706 293.96583 249.59375 292.3125 C 251.70039 290.6325 252.74997 288.30376 252.75 285.34375 C 252.74997 283.05043 252.13289 281.2846 250.90625 280.03125 C 249.67956 278.75127 247.72456 277.84585 245.03125 277.3125 L 240.46875 276.4375 C 238.3354 276.01085 236.89832 275.53794 236.125 275.03125 C 235.35166 274.49794 234.96874 273.69169 234.96875 272.625 C 234.96874 271.53169 235.40582 270.67127 236.3125 270.03125 C 237.21916 269.36461 238.45332 269.03127 240 269.03125 C 243.86665 269.03127 245.91165 270.55377 246.125 273.59375 L 251.71875 273.59375 C 251.71872 272.07377 251.43956 270.74044 250.90625 269.59375 C 250.39956 268.42044 249.77331 267.51503 249 266.875 C 248.22664 266.20836 247.31665 265.68128 246.25 265.28125 C 245.18331 264.85461 244.14748 264.57086 243.1875 264.4375 C 242.25415 264.3042 241.29457 264.25003 240.28125 264.25 z "
         style="font-variant:normal;font-weight:600;font-stretch:normal;letter-spacing:0.00197623px;word-spacing:0.00197623px;font-family:FreeSans;-inkscape-font-specification:FreeSans Semi-Bold"
         id="path3024"
         d="m 240.28125,263.5 c -3.60342,3e-5 -6.50646,0.78779 -8.625,2.5 -2.09489,1.68757 -3.15625,4.16713 -3.15625,7.1875 0,2.40359 0.66678,4.38378 2.09375,5.75 1.41996,1.35955 3.66954,2.26946 6.6875,2.84375 0.011,0.002 0.0202,-0.002 0.0312,0 l 4.0625,0.8125 a 0.74879373,0.74879373 0 0 0 0.0312,0 c 1.94621,0.3633 3.22474,0.84035 3.875,1.34375 0.65421,0.5065 0.96873,1.13176 0.96875,2.125 -2e-5,1.0122 -0.36088,1.70331 -1.25,2.28125 -0.87027,0.58017 -2.1547,0.90625 -3.875,0.90625 -1.92242,0 -3.33234,-0.39335 -4.28125,-1.09375 -0.94864,-0.70017 -1.43604,-1.65809 -1.53125,-3.0625 a 0.74879373,0.74879373 0 0 0 -0.75,-0.6875 l -5.84375,0 a 0.74879373,0.74879373 0 0 0 -0.75,0.78125 c 0.19581,3.27296 1.40003,5.92722 3.625,7.71875 2.25484,1.79232 5.37639,2.625 9.21875,2.625 3.86823,0 6.97353,-0.83843 9.25,-2.625 2.27555,-1.8147 3.43747,-4.4255 3.4375,-7.5625 -3e-5,-2.42762 -0.67777,-4.42887 -2.0625,-5.84375 -1.37961,-1.43954 -3.46602,-2.3862 -6.25,-2.9375 l -4.5625,-0.875 0,0.0312 c -2.07794,-0.41557 -3.45941,-0.92316 -4.0625,-1.3125 -0.5781,-0.39867 -0.84376,-0.89375 -0.84375,-1.78125 -1e-5,-0.89376 0.29024,-1.44567 1.03125,-1.96875 a 0.74879373,0.74879373 0 0 0 0,-0.0312 c 0.74138,-0.54511 1.81089,-0.84373 3.25,-0.84375 1.83506,10e-6 3.16031,0.3746 4,1 0.83969,0.6254 1.27941,1.51296 1.375,2.875 a 0.74879373,0.74879373 0 0 0 0.75,0.6875 l 5.59375,0 a 0.74879373,0.74879373 0 0 0 0.75,-0.75 c -3e-5,-1.60042 -0.29828,-3.03006 -0.875,-4.28125 -0.004,-0.009 0.004,-0.0225 0,-0.0312 -0.53156,-1.22291 -1.22857,-2.21045 -2.09375,-2.9375 l 0,-0.0312 c -0.007,-0.006 -0.0246,0.006 -0.0312,0 -0.83454,-0.715 -1.81958,-1.2964 -2.9375,-1.71875 -0.01,-0.004 -0.0213,0.004 -0.0312,0 -1.1052,-0.43964 -2.1973,-0.76435 -3.21875,-0.90625 -0.97635,-0.13944 -1.96001,-0.18747 -3,-0.1875 z"
         transform="matrix(0.9254076,0,0,0.9151893,16.766622,23.977575)" />
      <path
         sodipodi:type="arc"
         style="fill:#000080;fill-opacity:1"
         id="path3804"
         sodipodi:cx="710.13727"
         sodipodi:cy="476.57523"
         sodipodi:rx="18.182745"
         sodipodi:ry="17.172594"
         d="m 728.32001,476.57523 c 0,9.48416 -8.14069,17.17259 -18.18274,17.17259 -10.04205,0 -18.18275,-7.68843 -18.18275,-17.17259 0,-9.48417 8.1407,-17.1726 18.18275,-17.1726 10.04205,0 18.18274,7.68843 18.18274,17.1726 z"
         transform="matrix(0.19639047,0,0,0.14764728,81.387829,197.73804)" />
    </g>
  </g>
</svg>
